<svg xmlns="http://www.w3.org/2000/svg" width="1100" height="580" viewBox="0 0 1100 580">
<rect width="1100" height="580" fill="#f8faff"/>
<rect width="1100" height="90" fill="#e9f0ff"/>
<g font-family="Arial,sans-serif" fill="#203047">
<text x="60" y="39" font-size="26" font-weight="bold">Does confidence match accuracy?</text>
<text x="60" y="68" font-size="15">DecisionBench Medium · closer to the dashed line is better</text>
<path d="M190 120 V440 M190 440 H910" stroke="#dce3ec"/>
<text x="190" y="466" text-anchor="middle" font-size="14">0</text>
<text x="163" y="445" text-anchor="middle" font-size="14">0</text>
<path d="M370.0 120 V440 M190 362.5 H910" stroke="#dce3ec"/>
<text x="370.0" y="466" text-anchor="middle" font-size="14">25</text>
<text x="163" y="367.5" text-anchor="middle" font-size="14">25</text>
<path d="M550.0 120 V440 M190 285.0 H910" stroke="#dce3ec"/>
<text x="550.0" y="466" text-anchor="middle" font-size="14">50</text>
<text x="163" y="290.0" text-anchor="middle" font-size="14">50</text>
<path d="M730.0 120 V440 M190 207.5 H910" stroke="#dce3ec"/>
<text x="730.0" y="466" text-anchor="middle" font-size="14">75</text>
<text x="163" y="212.5" text-anchor="middle" font-size="14">75</text>
<path d="M910 120 V440 M190 130 H910" stroke="#dce3ec"/>
<text x="910" y="466" text-anchor="middle" font-size="14">100</text>
<text x="163" y="135" text-anchor="middle" font-size="14">100</text>
<path d="M190 440 L910 130" stroke="#737d8a" stroke-dasharray="6 5"/>
<text x="550" y="497" text-anchor="middle" font-size="16">Predicted confidence (%)</text>
<text transform="translate(105,285) rotate(-90)" text-anchor="middle" font-size="16">Observed accuracy (%)</text>
<polyline points="293.542175590992,440.0 402.3662135004997,401.25 559.7767550604684,292.3809523809524 699.891697883606,219.55555555555554 889.0333966945174,141.4285714285714" fill="none" stroke="#137c91" stroke-width="2.5"/>
<circle cx="293.542175590992" cy="440.0" r="3" fill="#137c91" fill-opacity=".15" stroke="#137c91" stroke-width="2"/>
<circle cx="402.3662135004997" cy="401.25" r="3" fill="#137c91" fill-opacity=".15" stroke="#137c91" stroke-width="2"/>
<circle cx="559.7767550604684" cy="292.3809523809524" r="3.207802986469088" fill="#137c91" fill-opacity=".15" stroke="#137c91" stroke-width="2"/>
<circle cx="699.891697883606" cy="219.55555555555554" r="4.695742752749558" fill="#137c91" fill-opacity=".15" stroke="#137c91" stroke-width="2"/>
<circle cx="889.0333966945174" cy="141.4285714285714" r="10.311643903859364" fill="#137c91" fill-opacity=".15" stroke="#137c91" stroke-width="2"/>
<circle cx="45" cy="527" r="5" fill="#137c91"/>
<text x="57" y="532" text-anchor="start" font-size="14">Jev-Omni</text>
<polyline points="432.4,336.6666666666667 568.5806451612904,260.0 701.5348837209303,202.09302325581393 877.0666666666666,138.61111111111114" fill="none" stroke="#f06423" stroke-width="2.5"/>
<circle cx="432.4" cy="336.6666666666667" r="3" fill="#f06423" fill-opacity=".15" stroke="#f06423" stroke-width="2"/>
<circle cx="568.5806451612904" cy="260.0" r="3.897435053981015" fill="#f06423" fill-opacity=".15" stroke="#f06423" stroke-width="2"/>
<circle cx="701.5348837209303" cy="202.09302325581393" r="4.5902069670114" fill="#f06423" fill-opacity=".15" stroke="#f06423" stroke-width="2"/>
<circle cx="877.0666666666666" cy="138.61111111111114" r="10.287856919689348" fill="#f06423" fill-opacity=".15" stroke="#f06423" stroke-width="2"/>
<circle cx="258" cy="527" r="5" fill="#f06423"/>
<text x="270" y="532" text-anchor="start" font-size="14">Jev 1.13</text>
<polyline points="898.4013651877153,136.3481228668942" fill="none" stroke="#8854e8" stroke-width="2.5"/>
<circle cx="898.4013651877153" cy="136.3481228668942" r="11.982069938036583" fill="#8854e8" fill-opacity=".15" stroke="#8854e8" stroke-width="2"/>
<circle cx="471" cy="527" r="5" fill="#8854e8"/>
<text x="483" y="532" text-anchor="start" font-size="14">GPT-5.6 Luna</text>
<polyline points="900.293515358363,132.11604095563138" fill="none" stroke="#008bd2" stroke-width="2.5"/>
<circle cx="900.293515358363" cy="132.11604095563138" r="11.982069938036583" fill="#008bd2" fill-opacity=".15" stroke="#008bd2" stroke-width="2"/>
<circle cx="684" cy="527" r="5" fill="#008bd2"/>
<text x="696" y="532" text-anchor="start" font-size="14">Gemini 3.8 Flash</text>
<polyline points="734.0319999999999,136.2 840.3999999999993,132.5514403292181" fill="none" stroke="#009b73" stroke-width="2.5"/>
<circle cx="734.0319999999999" cy="136.2" r="4.949747468305833" fill="#009b73" fill-opacity=".15" stroke="#009b73" stroke-width="2"/>
<circle cx="840.3999999999993" cy="132.5514403292181" r="10.911920087683926" fill="#009b73" fill-opacity=".15" stroke="#009b73" stroke-width="2"/>
<circle cx="897" cy="527" r="5" fill="#009b73"/>
<text x="909" y="532" text-anchor="start" font-size="14">Claude Sonnet 5</text>
<text x="60" y="562" text-anchor="start" font-size="13">Five confidence bins. Larger dots represent more answers; small bins can be noisy.</text>
</g></svg>