<svg xmlns="http://www.w3.org/2000/svg" viewBox="0 0 760 470" width="760" height="470" role="img" aria-label="DecisionBench: cost versus state-macro accuracy for medium and hard" font-family="-apple-system,Segoe UI,Helvetica,Arial,sans-serif" font-size="12">
<defs><linearGradient id="canvas" x1="0" y1="0" x2="1" y2="1"><stop offset="0%" stop-color="#e5f4ff"/><stop offset="52%" stop-color="#f0edff"/><stop offset="100%" stop-color="#ffece4"/></linearGradient><linearGradient id="banner" x1="0" y1="0" x2="1" y2="0"><stop offset="0%" stop-color="#ccecff"/><stop offset="60%" stop-color="#e2d9ff"/><stop offset="100%" stop-color="#ffd9df"/></linearGradient></defs>
<rect width="760" height="470" fill="url(#canvas)"/>
<rect width="760" height="470" fill="#ffffff"/>
<rect width="760" height="60" fill="#ffffff"/>
<text x="78" y="26" font-size="18" font-weight="600" fill="#33322e">Accuracy for the price</text>
<text x="78" y="48" fill="#6f6c66">DecisionBench Medium · state-macro accuracy · Jev priced per question</text>
<rect x="90" y="85" width="610" height="275" fill="#ffffff" fill-opacity=".65"/>
<path d="M90 360.0 H700" stroke="#e6e4df"/><text x="80" y="364.0" text-anchor="end">60%</text>
<path d="M90 295.0 H700" stroke="#e6e4df"/><text x="80" y="299.0" text-anchor="end">70%</text>
<path d="M90 230.0 H700" stroke="#e6e4df"/><text x="80" y="234.0" text-anchor="end">80%</text>
<path d="M90 165.0 H700" stroke="#e6e4df"/><text x="80" y="169.0" text-anchor="end">90%</text>
<path d="M90 100.0 H700" stroke="#e6e4df"/><text x="80" y="104.0" text-anchor="end">100%</text>
<path d="M90.0 85 V360" stroke="#e6e4df"/><text x="90.0" y="382" text-anchor="middle">$0.0001</text>
<path d="M316.0 85 V360" stroke="#e6e4df"/><text x="316.0" y="382" text-anchor="middle">$0.001</text>
<path d="M542.0 85 V360" stroke="#e6e4df"/><text x="542.0" y="382" text-anchor="middle">$0.01</text>
<polyline points="243.62493114962322,161.87999999999997 253.44901698289647,180.79500000000004 339.0245356321624,108.05999999999997 455.0123067609158,105.71999999999997 590.8524497562622,105.71999999999997" fill="none" stroke="#64748b" stroke-width="2"/>
<circle cx="253.44901698289647" cy="180.79500000000004" r="8" fill="#c026d3"/>
<text x="253.44901698289647" y="202.79500000000004" text-anchor="middle" fill="#c026d3" font-weight="600">87.57%</text>
<circle cx="243.62493114962322" cy="161.87999999999997" r="8" fill="#f06423"/>
<text x="243.62493114962322" y="148.87999999999997" text-anchor="middle" fill="#f06423" font-weight="600">90.48%</text>
<circle cx="455.0123067609158" cy="105.71999999999997" r="8" fill="#008bd2"/>
<text x="455.0123067609158" y="92.71999999999997" text-anchor="middle" fill="#008bd2" font-weight="600">99.12%</text>
<circle cx="339.0245356321624" cy="108.05999999999997" r="8" fill="#8854e8"/>
<text x="339.0245356321624" y="95.05999999999997" text-anchor="middle" fill="#8854e8" font-weight="600">98.76%</text>
<circle cx="590.8524497562622" cy="105.71999999999997" r="8" fill="#009b73"/>
<text x="590.8524497562622" y="92.71999999999997" text-anchor="middle" fill="#009b73" font-weight="600">99.12%</text>
<text x="390" y="409" text-anchor="middle" fill="#6f6c66">API cost per state (USD, logarithmic scale)</text>
<text transform="translate(22,220) rotate(-90)" text-anchor="middle" fill="#6f6c66">Accuracy (%)</text>
<circle cx="24" cy="438" r="5" fill="#c026d3"/><text x="35" y="442" font-size="10" fill="#c026d3" font-weight="600">Jev-Omni</text>
<circle cx="145" cy="438" r="5" fill="#f06423"/><text x="156" y="442" font-size="10" fill="#f06423" font-weight="600">Jev 1.13</text>
<circle cx="280" cy="438" r="5" fill="#008bd2"/><text x="291" y="442" font-size="10" fill="#008bd2" font-weight="600">Gemini 3.8 Flash</text>
<circle cx="455" cy="438" r="5" fill="#8854e8"/><text x="466" y="442" font-size="10" fill="#8854e8" font-weight="600">GPT-5.6 Luna</text>
<circle cx="620" cy="438" r="5" fill="#009b73"/><text x="631" y="442" font-size="10" fill="#009b73" font-weight="600">Claude Sonnet 5</text>
</svg>